<svg width="900" height="520" viewBox="0 0 900 520" fill="none" xmlns="http://www.w3.org/2000/svg">
  <rect width="900" height="520" rx="28" fill="#0E0F16"/>
  <rect x="36" y="38" width="350" height="26" rx="13" fill="#FFFFFF"/>
  <rect x="36" y="82" width="500" height="18" rx="9" fill="#AAAFBF"/>
  <rect x="36" y="132" width="828" height="186" rx="26" fill="#202126"/>
  <rect x="60" y="168" width="420" height="20" rx="10" fill="#FFFFFF"/>
  <rect x="60" y="204" width="520" height="16" rx="8" fill="#AAAFBF"/>
  <rect x="60" y="246" width="780" height="54" rx="18" fill="#111217" stroke="#444856"/>
  <rect x="676" y="160" width="164" height="48" rx="18" fill="#26282E" stroke="#3B3E47"/>
  <rect x="60" y="342" width="804" height="144" rx="26" fill="#202126"/>
  <rect x="60" y="378" width="804" height="48" rx="14" fill="#17181D"/>
  <rect x="80" y="444" width="804" height="1" fill="#2A2D35"/>
  <circle cx="94" cy="402" r="13" fill="#F25B44"/>
  <rect x="120" y="394" width="140" height="16" rx="8" fill="#FFFFFF"/>
  <rect x="666" y="388" width="116" height="28" rx="14" fill="#D62308"/>
  <text x="36" y="38" fill="#FFFFFF" font-size="20" font-family="Inter, Segoe UI, Arial, sans-serif" font-weight="700">RTG More</text>
</svg>
