<svg width="1280" height="640" viewBox="0 0 1280 640" fill="none" xmlns="http://www.w3.org/2000/svg">
  <defs>
    <linearGradient id="bg" x1="100" y1="44" x2="1172" y2="604" gradientUnits="userSpaceOnUse">
      <stop stop-color="#090B13"/>
      <stop offset="0.48" stop-color="#17132B"/>
      <stop offset="1" stop-color="#1E1533"/>
    </linearGradient>
    <radialGradient id="glowA" cx="0" cy="0" r="1" gradientUnits="userSpaceOnUse" gradientTransform="translate(208 522) rotate(-19.8) scale(336 182)">
      <stop stop-color="#2C56FF" stop-opacity="0.46"/>
      <stop offset="1" stop-color="#2C56FF" stop-opacity="0"/>
    </radialGradient>
    <radialGradient id="glowB" cx="0" cy="0" r="1" gradientUnits="userSpaceOnUse" gradientTransform="translate(1040 128) rotate(147) scale(286 152)">
      <stop stop-color="#57F59A" stop-opacity="0.2"/>
      <stop offset="1" stop-color="#57F59A" stop-opacity="0"/>
    </radialGradient>
    <linearGradient id="panel" x1="768" y1="114" x2="1140" y2="492" gradientUnits="userSpaceOnUse">
      <stop stop-color="#1D1E24"/>
      <stop offset="1" stop-color="#17181F"/>
    </linearGradient>
  </defs>

  <rect width="1280" height="640" rx="28" fill="url(#bg)"/>
  <rect width="1280" height="640" rx="28" fill="url(#glowA)"/>
  <rect width="1280" height="640" rx="28" fill="url(#glowB)"/>

  <g opacity="0.14" stroke="#8D92AF">
    <path d="M0 98H1280"/>
    <path d="M0 190H1280"/>
    <path d="M0 282H1280"/>
    <path d="M0 374H1280"/>
    <path d="M0 466H1280"/>
    <path d="M116 0V640"/>
    <path d="M300 0V640"/>
    <path d="M484 0V640"/>
    <path d="M668 0V640"/>
    <path d="M852 0V640"/>
    <path d="M1036 0V640"/>
  </g>

  <text x="84" y="102" fill="white" font-size="42" font-family="Inter, Segoe UI, Arial, sans-serif" font-style="italic" font-weight="800">SIMatrix</text>

  <text x="84" y="214" fill="white" font-size="82" font-family="Inter, Segoe UI, Arial, sans-serif" font-weight="800">Local-first eSIM</text>
  <text x="84" y="304" fill="white" font-size="82" font-family="Inter, Segoe UI, Arial, sans-serif" font-weight="800">scraping and curation</text>
  <text x="84" y="394" fill="#3A6BFF" font-size="82" font-family="Inter, Segoe UI, Arial, sans-serif" font-weight="800">dashboard</text>

  <text x="88" y="474" fill="#CFD3DF" font-size="28" font-family="Inter, Segoe UI, Arial, sans-serif" font-weight="500">
    Provider registry, freely extensible supplier records, local SQLite storage,
  </text>
  <text x="88" y="512" fill="#CFD3DF" font-size="28" font-family="Inter, Segoe UI, Arial, sans-serif" font-weight="500">
    CSV export, one-click Windows startup, and EXE packaging in one workflow.
  </text>

</svg>
